<svg width="8" height="21" viewBox="0 0 8 21" fill="none" xmlns="http://www.w3.org/2000/svg">
<path d="M2.83532 20.6111H1.44778C1.42384 20.5918 1.39728 20.5761 1.36861 20.5639C0.956233 20.407 0.618789 20.1087 0.421049 19.7262C0.223276 19.3437 0.179359 18.9044 0.297969 18.4925C0.927586 15.9886 1.57611 13.4886 2.20575 10.9847C2.29333 10.6379 2.35645 10.2858 2.39432 9.93098C2.42036 9.84125 2.3909 9.74517 2.31884 9.68333C2.24652 9.62148 2.14421 9.60475 2.05505 9.64024C1.9054 9.67167 1.75997 9.71933 1.62137 9.78193C1.30473 9.90918 0.999384 10.0582 0.682495 10.1781C0.452896 10.3038 0.162285 10.2481 0 10.0471V9.55659C0.21513 9.2656 0.458666 8.99539 0.727738 8.75C1.67793 8.0233 2.65444 7.33636 3.63466 6.64586C3.84453 6.51228 4.06991 6.40253 4.30583 6.31887C4.61538 6.18884 4.95937 6.15462 5.28995 6.22078C5.84855 6.29124 6.34617 6.59644 6.64962 7.05423C6.95285 7.51202 7.0307 8.07548 6.86212 8.59363C6.24618 11.0161 5.6305 13.4267 5.01459 15.825C4.91623 16.2174 4.84312 16.6157 4.79604 17.0169C4.77185 17.1069 4.80551 17.2022 4.88178 17.2589C4.95805 17.316 5.06219 17.3236 5.14662 17.2785C5.38042 17.2095 5.59897 17.1005 5.82514 17.0131C6.05132 16.9259 6.37927 16.7915 6.66228 16.7005V16.7008C6.82692 16.642 7.01181 16.6937 7.11858 16.8278C7.23824 16.9593 7.25639 17.15 7.16382 17.3003C7.09518 17.4404 7.0076 17.5712 6.90371 17.6891C6.67017 17.9367 6.41822 18.1674 6.14944 18.3796C5.12089 19.2229 4.01127 19.9702 2.8354 20.6107L2.83532 20.6111Z" fill="#9C9C9C"/>
<path d="M4.63019 5.0873C3.92904 5.09313 3.25416 4.82951 2.75479 4.35527C2.25536 3.88076 1.97238 3.23416 1.96841 2.55813C1.96447 1.88236 2.23956 1.23267 2.73345 0.752871C3.22709 0.272785 3.89881 0.00208796 4.59996 1.14599e-05C5.30137 -0.00201637 5.97437 0.265148 6.47118 0.742424C6.96772 1.21947 7.24679 1.86763 7.24679 2.54366C7.25179 3.21586 6.97853 3.86249 6.48727 4.33983C5.99626 4.81738 5.32797 5.08633 4.63026 5.08736L4.63019 5.0873Z" fill="#9C9C9C"/>
</svg>
