<svg width="28" height="24" viewBox="0 0 28 24" fill="none" xmlns="http://www.w3.org/2000/svg">
<path d="M25.9 0H2.1C1.54304 1.21311e-08 1.0089 0.22868 0.615075 0.635733C0.221249 1.04279 0 1.59487 0 2.17053C0 2.74619 0.221249 3.29827 0.615075 3.70532C1.0089 4.11238 1.54304 4.34106 2.1 4.34106H2.8V22.8526C2.79973 22.9482 2.81781 23.0429 2.8532 23.1313C2.88858 23.2196 2.94056 23.2998 3.00613 23.3672C3.0717 23.4346 3.14956 23.4879 3.23519 23.5241C3.32083 23.5602 3.41255 23.5784 3.50504 23.5776C3.59634 23.5776 3.68672 23.5587 3.77087 23.522C3.85501 23.4854 3.93123 23.4317 3.99504 23.3642L5.59999 21.7053L7.41007 23.5762C7.54006 23.7105 7.69439 23.8171 7.86424 23.8898C8.03409 23.9626 8.21614 24 8.39999 24C8.58384 24 8.76589 23.9626 8.93574 23.8898C9.10559 23.8171 9.25992 23.7105 9.38992 23.5762L11.2 21.7053L13.0101 23.5762C13.1401 23.7105 13.2944 23.8171 13.4642 23.8898C13.6341 23.9626 13.8161 24 14 24C14.1838 24 14.3659 23.9626 14.5357 23.8898C14.7056 23.8171 14.8599 23.7105 14.9899 23.5762L16.8 21.7053L18.6101 23.5762C18.74 23.7105 18.8944 23.8171 19.0642 23.8898C19.2341 23.9626 19.4161 24 19.6 24C19.7838 24 19.9659 23.9626 20.1357 23.8898C20.3056 23.8171 20.4599 23.7105 20.5899 23.5762L22.4 21.7053L24.005 23.3642C24.0688 23.4317 24.145 23.4853 24.2291 23.522C24.3133 23.5586 24.4037 23.5775 24.495 23.5776C24.5875 23.5783 24.6792 23.5601 24.7648 23.524C24.8504 23.4879 24.9283 23.4346 24.9939 23.3672C25.0594 23.2997 25.1114 23.2195 25.1468 23.1312C25.1822 23.0429 25.2003 22.9482 25.2 22.8526V4.34106H25.9C26.457 4.34106 26.9911 4.11238 27.3849 3.70532C27.7788 3.29827 28 2.74619 28 2.17053C28 1.59487 27.7788 1.04279 27.3849 0.635733C26.9911 0.22868 26.4569 1.21311e-08 25.9 0ZM2.8 2.89404H2.1C1.91435 2.89404 1.7363 2.81781 1.60502 2.68213C1.47375 2.54644 1.4 2.36242 1.4 2.17053C1.4 1.97864 1.47375 1.79461 1.60502 1.65893C1.7363 1.52325 1.91435 1.44702 2.1 1.44702H2.8V2.89404ZM20.3 15.9172H7.69999C7.51434 15.9172 7.33629 15.841 7.20502 15.7053C7.07374 15.5696 6.99999 15.3856 6.99999 15.1937C6.99999 15.0018 7.07374 14.8178 7.20502 14.6821C7.33629 14.5464 7.51434 14.4702 7.69999 14.4702H20.3C20.4856 14.4702 20.6637 14.5464 20.795 14.6821C20.9262 14.8178 21 15.0018 21 15.1937C21 15.3856 20.9262 15.5696 20.795 15.7053C20.6637 15.841 20.4856 15.9172 20.3 15.9172ZM20.3 11.5762H7.69999C7.51434 11.5762 7.33629 11.4999 7.20502 11.3642C7.07374 11.2286 6.99999 11.0445 6.99999 10.8526C6.99999 10.6608 7.07374 10.4767 7.20502 10.341C7.33629 10.2054 7.51434 10.1291 7.69999 10.1291H20.3C20.4856 10.1291 20.6637 10.2054 20.795 10.341C20.9262 10.4767 21 10.6608 21 10.8526C21 11.0445 20.9262 11.2286 20.795 11.3642C20.6637 11.4999 20.4856 11.5762 20.3 11.5762ZM20.3 7.2351H7.69999C7.51434 7.2351 7.33629 7.15887 7.20502 7.02319C7.07374 6.8875 6.99999 6.70347 6.99999 6.51159C6.99999 6.3197 7.07374 6.13567 7.20502 5.99999C7.33629 5.8643 7.51434 5.78808 7.69999 5.78808H20.3C20.4856 5.78808 20.6637 5.8643 20.795 5.99999C20.9262 6.13567 21 6.3197 21 6.51159C21 6.70347 20.9262 6.8875 20.795 7.02319C20.6637 7.15887 20.4856 7.2351 20.3 7.2351ZM25.9 2.89404H25.2V1.44702H25.9C26.0856 1.44702 26.2637 1.52325 26.395 1.65893C26.5262 1.79461 26.6 1.97864 26.6 2.17053C26.6 2.36242 26.5262 2.54644 26.395 2.68213C26.2637 2.81781 26.0856 2.89404 25.9 2.89404Z" fill="#9C9C9C"/>
</svg>
