<svg width="27" height="25" viewBox="0 0 27 25" fill="none" xmlns="http://www.w3.org/2000/svg">
<path d="M26.83 13.8915C26.83 17.8544 25.0082 21.5512 21.8322 24.0332C21.5247 24.2734 21.1568 24.39 20.7906 24.39C20.3025 24.39 19.8193 24.1821 19.4896 23.7817C18.9144 23.0825 19.029 22.0602 19.7476 21.499C22.1307 19.6371 23.4975 16.8642 23.4975 13.8915C23.4975 8.51847 19.013 4.14786 13.5 4.14786C7.98702 4.14786 3.50251 8.51847 3.50251 13.8915C3.50251 16.8619 4.86691 19.6322 7.24587 21.4941C7.96332 22.0556 8.07826 23.0776 7.50211 23.7768C6.92595 24.4778 5.87822 24.5895 5.15988 24.0265C1.98852 21.5454 0.170013 17.8512 0.170013 13.8915C0.170013 6.72796 6.14985 0.899994 13.5 0.899994C20.8502 0.899994 26.83 6.72796 26.83 13.8915ZM13.5 10.0099C12.9446 10.0099 12.417 10.1205 11.9324 10.3127L8.50126 9.19807L9.64498 12.5421C9.44769 13.0144 9.33424 13.5286 9.33424 14.0699C9.33424 16.3119 11.1993 18.1296 13.4997 18.1296C15.8002 18.1296 17.6652 16.3116 17.6652 14.0699C17.6655 11.8275 15.8008 10.0099 13.5 10.0099Z" fill="#007AFF"/>
</svg>
